/* XPM */
static char *result[] = {
/* columns rows colors chars-per-pixel */
"20 20 237 2 ",
"   c #7D1908",
".  c #772F1A",
"X  c #7A4E39",
"o  c #7F4F39",
"O  c #675034",
"+  c #7A523F",
"@  c #685040",
"#  c #6F5B4A",
"$  c #715644",
"%  c #745A47",
"&  c #7B6243",
"*  c #766251",
"=  c #7F6450",
"-  c #7C6956",
";  c #861C09",
":  c #911F09",
">  c #9B2D12",
",  c #9C3014",
"<  c #973C19",
"1  c #A42202",
"2  c #A72F0C",
"3  c #B6350D",
"4  c #BD370B",
"5  c #A33416",
"6  c #AD3513",
"7  c #A93D1E",
"8  c #B53A12",
"9  c #BD3A11",
"0  c #C12F03",
"q  c #C23503",
"w  c #C43D01",
"e  c #C63D06",
"r  c #CF3F03",
"t  c #CD3907",
"y  c #CB3C0E",
"u  c #B94415",
"i  c #B6421B",
"p  c #B9431D",
"a  c #B8451E",
"s  c #9C4A2D",
"d  c #814C32",
"f  c #804D35",
"g  c #9E5038",
"h  c #91593C",
"j  c #9C5A3D",
"k  c #AB4726",
"l  c #A04228",
"z  c #A5462A",
"x  c #AE4728",
"c  c #A24B2B",
"v  c #B14623",
"b  c #B44520",
"n  c #B44824",
"m  c #B94D28",
"M  c #AB5231",
"N  c #AD5235",
"B  c #B55535",
"V  c #CC4601",
"C  c #D44002",
"Z  c #D74303",
"A  c #D54306",
"S  c #DB4A01",
"D  c #DC4C01",
"F  c #DC4E00",
"G  c #DD4D05",
"H  c #D34A0F",
"J  c #D74B0F",
"K  c #D94E08",
"L  c #DC4F0A",
"P  c #DA5403",
"I  c #DF5206",
"U  c #D6570A",
"Y  c #DF5309",
"T  c #DB500C",
"R  c #C84511",
"E  c #CA4411",
"W  c #C64B1B",
"Q  c #C14F1B",
"!  c #C7541C",
"~  c #DE5710",
"^  c #D95617",
"/  c #D2511A",
"(  c #D9581B",
")  c #E45904",
"_  c #E76304",
"`  c #E56404",
"'  c #E86902",
"]  c #E96E02",
"[  c #C6562A",
"{  c #CF5A29",
"}  c #D65C23",
"|  c #CF6627",
" . c #D76D2B",
".. c #C96731",
"X. c #9E5E40",
"o. c #8D624D",
"O. c #98634A",
"+. c #9D674C",
"@. c #897557",
"#. c #8E7659",
"$. c #BB6440",
"%. c #BB6D4A",
"&. c #8A7563",
"*. c #897663",
"=. c #8A7965",
"-. c #8C7C6B",
";. c #937865",
":. c #907A69",
">. c #9E7F6E",
",. c #A77963",
"<. c #AF7C66",
"1. c #A17C69",
"2. c #A07F6B",
"3. c #A27E6B",
"4. c #A27F6C",
"5. c #C47048",
"6. c #9B845E",
"7. c #A0845D",
"8. c #A1865D",
"9. c #A0885E",
"0. c #9F8661",
"q. c #97836D",
"w. c #9C8771",
"e. c #9A8277",
"r. c #9A8977",
"t. c #A1806D",
"y. c #A3836F",
"u. c #A0886D",
"i. c #A99168",
"p. c #A28673",
"a. c #A98777",
"s. c #A68E74",
"d. c #B78671",
"f. c #AA9470",
"g. c #A3917B",
"h. c #A79379",
"j. c #A1907E",
"k. c #BF9178",
"l. c #B1987F",
"z. c #B9A174",
"x. c #BAA176",
"c. c #BAA377",
"v. c #D78543",
"b. c #D68145",
"n. c #DB8C4A",
"m. c #DE904B",
"M. c #C7815B",
"N. c #D28E5B",
"B. c #DB9D5E",
"V. c #CF8C63",
"C. c #D69760",
"Z. c #D39665",
"A. c #D6976C",
"S. c #C79879",
"D. c #D2A274",
"F. c #DCA971",
"G. c #9A8D84",
"H. c #A79185",
"J. c #AA9680",
"K. c #AA9783",
"L. c #AF9B81",
"P. c #AE9C8B",
"I. c #B69C8F",
"U. c #B89C8F",
"Y. c #AF9F90",
"T. c #BEA787",
"R. c #B3A08E",
"E. c #B1A390",
"W. c #B2A492",
"Q. c #BCA991",
"!. c #B4A498",
"~. c #B4A698",
"^. c #B7A79B",
"/. c #B7AB9C",
"(. c #BCAB99",
"). c #BEAC9B",
"_. c #BCAAA0",
"`. c #BDAEA0",
"'. c #BEB0A1",
"]. c #BFB3AD",
"[. c #BFB6AD",
"{. c #C0A288",
"}. c #D3A381",
"|. c #C5B399",
" X c #CAB39D",
".X c #D4B297",
"XX c #DCB996",
"oX c #D2B49F",
"OX c #C1B3A2",
"+X c #C6B6A2",
"@X c #C0B3A6",
"#X c #C3B6A5",
"$X c #C3B8AA",
"%X c #C6B9A9",
"&X c #C7BAAA",
"*X c #C7BAAB",
"=X c #C7BBAB",
"-X c #C5BBAD",
";X c #C8BCAE",
":X c #C8BCAF",
">X c #CEBFAC",
",X c #DDBDA7",
"<X c #C6BCB0",
"1X c #C6BCB6",
"2X c #C6BDB7",
"3X c #C8BFBA",
"4X c #CBC1B3",
"5X c #CCC2B5",
"6X c #CEC3B5",
"7X c #CDC3B7",
"8X c #CDC3B8",
"9X c #D1C4B3",
"0X c #D3C5B7",
"qX c #D4CABD",
"wX c #E4C8AB",
"eX c #E0CAB7",
"rX c #CEC5C0",
"tX c #D4CBC0",
"yX c #D4C9C4",
"uX c #D4CCC7",
"iX c #D7CFC6",
"pX c #D8CFC2",
"aX c #D5CDC8",
"sX c #DAD0C4",
"dX c #DAD1C6",
"fX c #DFD5C9",
"gX c #D9D1CE",
"hX c #DBD3CF",
"jX c #DDD8D1",
"kX c #E2DBCF",
"lX c #E3DBD0",
"zX c #E0DAD8",
"xX c #E5E0DB",
"cX c #E8E4DE",
"vX c #EDE9E5",
"bX c #F0EEEB",
"nX c None",
/* pixels */
"nXnXnXnXnXnXnXnXnXnXnXnXkXpXnXnXnXnXnXnX",
"nXnXnXnXnXnXnXnXnXnXnXbXE.f.|.lXnXnXnXnX",
"nXnXnXnXnXnXnXnXnXnXnX-X& i.x.T.9XnXnXnX",
"nXnXnXnXnXnXnXnXnXnXiXg.h.7.c.z.0.W.nXnX",
"nXnXnXnXnXvX8X$X@X`.K.u.+XQ.8.9.6.@.jXnX",
"nXnXnXnXtX#X=X%X(.J.s.l.OX>XL.#.O =.cXnX",
"nXnXnX:X&X6XqXsXR.:.&.P.r.w.q.*.- [.nXnX",
"nXnX7X*X;X4XdXfX).;.* -.j.# % @ G.nXnXnX",
"nXxX'.5X0X XoXeX,X%.h d f $ = ].nXnXnXnX",
"nX<X{.S..X}.V.XXwXA...Q u < . e.nXnXnXnX",
"nX/.k.$.M.D.Z.C.F.B.v.| ! 2   + 3XnXnXnX",
"nX~.d.N B 5.N.b.n.m. .E 4 1 ; X 2XnXnXnX",
"nXY.<.z x m [ { } ( J t 0 w : o 1XnXnXnX",
"nX^.,.l 7 i W / ^ ~ L A P V > o.rXnXnXnX",
"nXhXp.g 5 8 R H T Y I ` ] q c H.nXnXnXnX",
"nXnX!.+., 3 U K G ) _ ' F 9 O.gXnXnXnXnX",
"nXnXaXy.s 6 e r C S D Z y M I.nXnXnXnXnX",
"nXnXnXuX2.j k v b a p n X.U.nXnXnXnXnXnX",
"nXnXnXnXzX_.>.t.4.3.1.a.yXnXnXnXnXnXnXnX",
"nXnXnXnXnXnXnXnXnXnXnXnXnXnXnXnXnXnXnXnX"
};
