/* XPM */
static char *result[] = {
/* columns rows colors chars-per-pixel */
"20 20 114 2 ",
"   c #44392F",
".  c #463A31",
"X  c #483B31",
"o  c #493C31",
"O  c #493C32",
"+  c #4D4037",
"@  c #7B4D2D",
"#  c #7E4F2F",
"$  c #7B4F30",
"%  c #7B4F31",
"&  c #69503F",
"*  c #6C513D",
"=  c #7F5030",
"-  c #7F5232",
";  c #7B5B44",
":  c #7F5E45",
">  c #805130",
",  c #815130",
"<  c #815230",
"1  c #815231",
"2  c #825231",
"3  c #825331",
"4  c #835331",
"5  c #805232",
"6  c #805333",
"7  c #835332",
"8  c #825433",
"9  c #845432",
"0  c #845433",
"q  c #855433",
"w  c #855533",
"e  c #865533",
"r  c #855534",
"t  c #855634",
"y  c #875634",
"u  c #875734",
"i  c #865736",
"p  c #885734",
"a  c #885735",
"s  c #895835",
"d  c #8A5835",
"f  c #885836",
"g  c #895836",
"h  c #895937",
"j  c #8A5836",
"k  c #8A5936",
"l  c #8B5936",
"z  c #8A5937",
"x  c #8B5A37",
"c  c #8C5A37",
"v  c #8D5B37",
"b  c #8B5A38",
"n  c #8A5B39",
"m  c #8B5B3A",
"M  c #8C5B38",
"N  c #8D5B38",
"B  c #8E5B38",
"V  c #8D5C39",
"C  c #8E5C38",
"Z  c #8E5C39",
"A  c #8F5D39",
"S  c #8F5E3A",
"D  c #905D39",
"F  c #905D3A",
"G  c #905E3A",
"H  c #915E3A",
"J  c #925F3A",
"K  c #935F3A",
"L  c #935F3B",
"P  c #93603B",
"I  c #94603B",
"U  c #95603B",
"Y  c #93603C",
"T  c #95613C",
"R  c #96613C",
"E  c #96623C",
"W  c #97623D",
"Q  c #97633D",
"!  c #94623E",
"~  c #98633D",
"^  c #99643E",
"/  c #98643F",
"(  c #99643F",
")  c #99653F",
"_  c #9A653F",
"`  c #825E45",
"'  c #996540",
"]  c #9A6540",
"[  c #9A6640",
"{  c #9B6640",
"}  c #9A6641",
"|  c #9B6641",
" . c #996642",
".. c #9A6642",
"X. c #9A6742",
"o. c #9C6741",
"O. c #9D6842",
"+. c #9C6844",
"@. c #9D6A45",
"#. c #9F6B46",
"$. c #92684B",
"%. c #93694B",
"&. c #A06A43",
"*. c #A06C47",
"=. c #A46D46",
"-. c #A3724F",
";. c #AA724A",
":. c #AC734B",
">. c #AC744B",
",. c #AD744B",
"<. c #AE764E",
"1. c #B2784F",
"2. c #AF7851",
"3. c None",
/* pixels */
"3.3.3.3.3.3.3.3.3.3.3.3.3.3.3.3.3.3.3.3.",
"3.+ : %.%.%.%.%.%.* ` %.%.%.%.%.$.& 3.3.",
"; -.<.:.:.:.:.:.,.m X.,.:.:.:.:.>.2.$.3.",
"1.=.Q K I P I I T r M U K K P I J { ;.3.",
"^ I s e y 7 j d c t z s w q w y 1 p Q 3.",
"Q l y 9 e 1 p y k t z a 3 w 7 7 e 7 L 3.",
"W u 9 = > # 2 9 u t z 9 # 2 = 1 w 2 C 3.",
"^ } ..} } } } ..] r V } } ..} } ..} ) 3.",
"^ / ] { ] ( o.o.{ r Z o.{ ( ] { | [ ( 3.",
"Q 9 9 e 7 1 y F &.r G O.y 7 9 y q 7 C 3.",
"W y e > q q y C S 8 i G e a e w w 0 D 3.",
"W p 7 @ 7 7 = w $ 5 % - 2 w 7 > 2 < v 3.",
"^ } ..} ....} ' H r z Y ....} } } } ' 3.",
"^ _ ] ] ] ] o.{ E r M R ) | { ] { [ ( 3.",
"W a w 7 w q y e c t x e 1 q e 3 e 2 B 3.",
"W w 3 , e 1 9 7 B t z p q 3 9 9 4 4 A 3.",
"~ M f g z g z h G t b N z z z z z z P 3.",
"! @.*.*.*.*.*.*.+.6 n #.*.*.*.*.*.*. .3.",
"3.o X X X X X X O   . o X X X X X X O 3.",
"3.3.3.3.3.3.3.3.3.3.3.3.3.3.3.3.3.3.3.3."
};
