/* XPM */
static char *result[] = {
/* columns rows colors chars-per-pixel */
"20 20 216 2 ",
"   c #694E33",
".  c #67523C",
"X  c #68523E",
"o  c #695540",
"O  c #715B44",
"+  c #725C46",
"@  c #785C41",
"#  c #7E6245",
"$  c #76614D",
"%  c #77624D",
"&  c #79644C",
"*  c #79644F",
"=  c #7A644F",
"-  c #7C674E",
";  c #7A6652",
":  c #7C6752",
">  c #7D6851",
",  c #81674C",
"<  c #896C4E",
"1  c #806B56",
"2  c #8A6E51",
"3  c #806E59",
"4  c #8D7153",
"5  c #8B7054",
"6  c #84715A",
"7  c #84715B",
"8  c #87715A",
"9  c #86715B",
"0  c #82705F",
"q  c #84705D",
"w  c #86735E",
"e  c #8D7459",
"r  c #8F775C",
"t  c #8F795D",
"y  c #95785A",
"u  c #94785C",
"i  c #977B5C",
"p  c #987B5C",
"a  c #807060",
"s  c #847260",
"d  c #897660",
"f  c #8B7862",
"g  c #897968",
"h  c #8B7A6A",
"j  c #8D7D6E",
"k  c #947C60",
"l  c #907D66",
"z  c #917E67",
"x  c #9A7E60",
"c  c #927E69",
"v  c #9E8161",
"b  c #998064",
"n  c #9D8265",
"m  c #9E8466",
"M  c #95816B",
"N  c #90816C",
"B  c #93816E",
"V  c #94826C",
"C  c #95846E",
"Z  c #97846E",
"A  c #97856E",
"S  c #97866F",
"D  c #968573",
"F  c #988772",
"G  c #9B8971",
"H  c #988972",
"J  c #9A8B75",
"K  c #9C8B77",
"L  c #9E8F79",
"P  c #A38767",
"I  c #A3896A",
"U  c #A68A6A",
"Y  c #A08A70",
"T  c #A18C73",
"R  c #A38D72",
"E  c #A58E72",
"W  c #A38D74",
"Q  c #A1917B",
"!  c #A1927D",
"~  c #A6937C",
"^  c #AC9679",
"/  c #A79681",
"(  c #A79983",
")  c #A79B87",
"_  c #A89885",
"`  c #A99986",
"'  c #AA9C87",
"]  c #AE9D87",
"[  c #AA9C88",
"{  c #AA9D89",
"}  c #AB9E8A",
"|  c #AA9D8C",
" . c #AA9F8C",
".. c #AD9F8D",
"X. c #B19D82",
"o. c #B4A38A",
"O. c #B7A68B",
"+. c #B0A38F",
"@. c #AFA296",
"#. c #B1A491",
"$. c #B3A490",
"%. c #B3A593",
"&. c #B4A690",
"*. c #B2A795",
"=. c #B3A795",
"-. c #B1A896",
";. c #B3A896",
":. c #B4A895",
">. c #B5AA97",
",. c #B0A59C",
"<. c #B5AA99",
"1. c #B7AB99",
"2. c #B4AB9A",
"3. c #B7AB9A",
"4. c #B7AB9C",
"5. c #B9AB98",
"6. c #B8AC98",
"7. c #BAAE99",
"8. c #B8AE9B",
"9. c #B9AE9D",
"0. c #BAAE9D",
"q. c #B9B09E",
"w. c #BEB39F",
"e. c #B7ADA4",
"r. c #BAB0A0",
"t. c #BBB2A0",
"y. c #BBB3A2",
"u. c #BFB3A2",
"i. c #BBB0A7",
"p. c #BDB4A5",
"a. c #BFB6A6",
"s. c #C0B8A7",
"d. c #C0B7AE",
"f. c #C0B9A9",
"g. c #C1B8AA",
"h. c #C4BBA9",
"j. c #C5BAAA",
"k. c #C3BBAD",
"l. c #C4BDAF",
"z. c #C8BEAE",
"x. c #C8BEAF",
"c. c #C6BDB0",
"v. c #C6BDB4",
"b. c #C9BFB1",
"n. c #C7C1B2",
"m. c #CAC1B1",
"M. c #C8C1B2",
"N. c #C9C3B4",
"B. c #CBC3B5",
"V. c #CAC3B6",
"C. c #CBC3B6",
"Z. c #CBC5B6",
"A. c #CCC5B6",
"S. c #CDC6B6",
"D. c #CDC6B7",
"F. c #CEC6B7",
"G. c #CEC7B7",
"H. c #CAC1B8",
"J. c #CCC7B9",
"K. c #CFC7B8",
"L. c #CFC6BD",
"P. c #CCC8BB",
"I. c #CFC8BA",
"U. c #CFC9BE",
"Y. c #CFC9BF",
"T. c #D1CBBD",
"R. c #D1CABE",
"E. c #D2CABE",
"W. c #CEC7C0",
"Q. c #D1CAC3",
"!. c #D3CEC1",
"~. c #D3CFC3",
"^. c #D4CEC5",
"/. c #D6D1C3",
"(. c #D5D1C6",
"). c #D5D2C6",
"_. c #D7D3C7",
"`. c #D9D2C7",
"'. c #D7D1CC",
"]. c #D8D3CA",
"[. c #D8D4C8",
"{. c #D8D4C9",
"}. c #DAD6C9",
"|. c #D8D6CA",
" X c #D9D3CE",
".X c #DAD7CC",
"XX c #DBD6CF",
"oX c #DED7CD",
"OX c #DBD8CD",
"+X c #DCDACF",
"@X c #DCD7D3",
"#X c #DCDBD0",
"$X c #DEDBD1",
"%X c #DFDDD4",
"&X c #E0DBD1",
"*X c #E0DDD3",
"=X c #E1DBD4",
"-X c #E0DED5",
";X c #E4E1D8",
":X c #E4E2D9",
">X c #E5E5DB",
",X c #E6E2DF",
"<X c #EBE8E3",
"1X c #EBE9E3",
"2X c #ECE9E4",
"3X c #ECE9E5",
"4X c #EFEDEA",
"5X c #F3F1EE",
"6X c #F2F0EF",
"7X c #F2F1EF",
"8X c #F7F5F3",
"9X c #F7F6F4",
"0X c #F8F6F4",
"qX c #F8F7F5",
"wX c #FAF9F8",
"eX c None",
/* pixels */
"eXeXeXeXeXeXeXeXeXeXeXeXeXeXeXeXeXeXeXeX",
"eXeXeXeXeXeXeXeXeXeXeXeXeXeXeXeXeXeXeXeX",
"eXeXeXeXeXeXeXeX8X0XqXqXeXeXeXeXeXeXeXeX",
"eXeXeXeXeXeX=Xb.u.m.D.G.F.&XeXeXeXeXeXeX",
"eXeXeXeXeXL._ :.M._.+XOX[.S.K.eXeXeXeXeX",
"eXeXeXeXH.K ..l.(.-X>X>X;X*XT.D.eXeXeXeX",
"eXeXeXv.B L r.J.C.R./.}.:X$XB.w.oXeXeXeX",
"eXeX4XD l { g.3.b m I E z.A.k Y j.9XeXeX",
"eXeXi.9 Z #.9.e i P U v ] x.u n T `.eXeX",
"eXeX@.6 S +.=., 4 y p x o.5.~ 5 r E.eXeX",
"eX Xq f A [ >.8 @ # 2 ^ X.W Z.V - 1.2XeX",
"eX'.; d A Q %.<.>   t O.R < G V.*.0.<XeX",
"eX'.$ 7 z M ` s.2.F &.7.$./ ;.{.!.a.1XeX",
"eX@Xs = 1 c } t.q.) ' 6.h.I..X#X).k.3XeX",
"eXeX,.X * C J N 3 O & ( 8.N.~.|.P.].eXeX",
"eXeX,X0 : w o . + % + H ! y.f.n.-.%XeXeX",
"eXeXeXe.j h a g d.Q.W.4.c.p.|  .U.5XeXeX",
"eXeXeXeXeX6X7XeXeXeXeXeXwX^.XXY.3XeXeXeX",
"eXeXeXeXeXeXeXeXeXeXeXeXeXeXeXeXeXeXeXeX",
"eXeXeXeXeXeXeXeXeXeXeXeXeXeXeXeXeXeXeXeX"
};
