/* XPM */
static char *d2FsbCslMjgxJTI5[] = {
/* columns rows colors chars-per-pixel */
"20 20 17 1 ",
"  c #70706E",
". c #71716F",
"X c #6D6D6B",
"o c #6F6F6D",
"O c #727270",
"+ c #6E6E6C",
"@ c #6B6B69",
"# c #737371",
"$ c #656563",
"% c #636361",
"& c #696967",
"* c #686866",
"= c #626260",
"- c #757573",
"; c #5D5D5B",
": c #676765",
"> c white",
/* pixels */
" .X..oO       oo. o ",
".o. oo       OO   . ",
" o ..OO      oo.+o..",
".O+.o@       ..#. o ",
"  + o@o      o$%&   ",
" +. oO       #*=&. o",
"o..ooOo       .O.   ",
"  o....             ",
".+Xo o.             ",
"o.#.O o             ",
"o.-&+#+             ",
"  .@XOo..+..o       ",
"   ..  ..o..        ",
"        o.o+        ",
"         ooO        ",
"      o .+ X+       ",
"      o   +;:O      ",
"         . + .      ",
"           .        ",
"                    "
};
